<svg width="100" height="100" viewBox="0 0 100 100" fill="none" xmlns="http://www.w3.org/2000/svg">
    <path d="M98.5232 44.9975H94.8008C94.1076 35.6585 90.5135 26.7696 84.5208 19.5734C78.5281 12.3773 70.4365 7.23363 61.3772 4.8616C61.0065 3.46937 60.1868 2.23833 59.0452 1.35935C57.9037 0.480375 56.504 0.00256394 55.0633 0H44.9367C43.4951 0.0025334 42.0947 0.480935 40.9528 1.36093C39.811 2.24093 38.9916 3.47328 38.6219 4.86667C29.5736 7.2578 21.4939 12.4062 15.5041 19.5974C9.51438 26.7886 5.9116 35.6659 5.19578 44.9975H1.47679C1.28283 44.9974 1.09074 45.0355 0.911518 45.1097C0.732295 45.1838 0.569451 45.2926 0.432296 45.4298C0.295141 45.5669 0.186365 45.7298 0.112189 45.909C0.038012 46.0882 -0.000110692 46.2803 2.41407e-07 46.4743V54.0692C2.41407e-07 54.4609 0.155591 54.8365 0.432543 55.1135C0.709495 55.3904 1.08512 55.546 1.47679 55.546H5.06329V59.2827C5.10204 68.9674 8.68619 78.3027 15.1387 85.525C21.5912 92.7472 30.4652 97.3564 40.0844 98.4818V98.5232C40.0844 98.9149 40.24 99.2905 40.5169 99.5675C40.7939 99.8444 41.1695 100 41.5612 100H58.4388C58.8305 100 59.2061 99.8444 59.4831 99.5675C59.76 99.2905 59.9156 98.9149 59.9156 98.5232V98.4818C69.5348 97.3564 78.4088 92.7472 84.8613 85.525C91.3138 78.3027 94.898 68.9674 94.9367 59.2827V55.546H98.5232C98.9149 55.546 99.2905 55.3904 99.5675 55.1135C99.8444 54.8365 100 54.4609 100 54.0692V46.4743C100 46.2803 99.962 46.0882 99.8878 45.909C99.8136 45.7298 99.7049 45.5669 99.5677 45.4298C99.4305 45.2926 99.2677 45.1838 99.0885 45.1097C98.9093 45.0355 98.7172 44.9974 98.5232 44.9975ZM91.8422 44.9975H61.6034V7.98481C64.7857 8.89761 67.848 10.186 70.7257 11.8228V28.8945C70.7273 30.2929 71.2835 31.6335 72.2723 32.6223C73.261 33.611 74.6017 34.1672 76 34.1688C77.3983 34.1672 78.739 33.611 79.7277 32.6223C80.7165 31.6335 81.2727 30.2929 81.2743 28.8945V20.3384C87.4117 27.173 91.1259 35.8396 91.8422 44.9975ZM73.6793 13.6726C75.3108 14.7893 76.8617 16.0193 78.3207 17.3536V28.8945C78.3198 29.5097 78.075 30.0995 77.64 30.5345C77.205 30.9695 76.6152 31.2143 76 31.2152C75.3849 31.2141 74.7952 30.9692 74.3603 30.5342C73.9253 30.0993 73.6804 29.5097 73.6793 28.8945V13.6726ZM44.9367 2.95359H48.5232V28.481C48.5232 28.8727 48.6788 29.2483 48.9557 29.5253C49.2327 29.8022 49.6083 29.9578 50 29.9578C50.3917 29.9578 50.7673 29.8022 51.0442 29.5253C51.3212 29.2483 51.4768 28.8727 51.4768 28.481V2.95359H55.0633C56.0141 2.9547 56.9257 3.33292 57.5981 4.00528C58.2705 4.67764 58.6487 5.58923 58.6498 6.54008V44.9975H41.3502V6.54008C41.3513 5.58923 41.7295 4.67764 42.4019 4.00528C43.0743 3.33292 43.9859 2.9547 44.9367 2.95359ZM21.6793 17.384C23.1376 16.0422 24.6886 14.8049 26.3207 13.681V28.8945C26.3191 29.5095 26.0741 30.0989 25.6392 30.5338C25.2044 30.9686 24.615 31.2136 24 31.2152C23.3848 31.2143 22.795 30.9695 22.36 30.5345C21.925 30.0995 21.6802 29.5097 21.6793 28.8945V17.384ZM18.7257 20.3662V28.8895C18.7273 30.2878 19.2835 31.6284 20.2723 32.6172C21.261 33.606 22.6017 34.1622 24 34.1637C25.3983 34.1622 26.739 33.606 27.7277 32.6172C28.7165 31.6284 29.2727 30.2878 29.2743 28.8895V11.8329C32.1508 10.191 35.2133 8.89881 38.3966 7.98397V44.9975H8.15443C8.89114 35.8528 12.6044 27.2015 18.7257 20.3679V20.3662ZM8.01688 59.2827V55.546H10.1266V59.2827C10.1785 67.6201 13.2372 75.6588 18.7407 81.9219C24.2442 88.185 31.8229 92.252 40.0844 93.3755V95.5122C31.2518 94.396 23.1272 90.1041 17.2265 83.4376C11.3259 76.7711 8.05235 68.1854 8.01688 59.2827ZM86.9198 55.546V59.2827C86.8735 66.8549 84.1144 74.1596 79.1431 79.8715C74.1719 85.5835 67.3178 89.3243 59.8245 90.4152C59.8245 90.4067 59.8152 90.4008 59.8118 90.3924C59.7648 90.2722 59.7021 90.1587 59.6253 90.0548C59.6084 90.0312 59.589 90.011 59.5705 89.9882C59.4959 89.898 59.4109 89.817 59.3173 89.7468C59.3038 89.7367 59.292 89.7249 59.2785 89.7148C59.171 89.6419 59.0544 89.5834 58.9316 89.5409C58.9021 89.5308 58.8734 89.5224 58.8473 89.5139C58.7148 89.4736 58.5773 89.4526 58.4388 89.4515H41.5612C41.4232 89.4533 41.2863 89.4749 41.1544 89.5156C41.1249 89.524 41.0962 89.5325 41.07 89.5426C40.9473 89.5851 40.8307 89.6436 40.7232 89.7165C40.7097 89.7266 40.6979 89.7384 40.6844 89.7485C40.5908 89.819 40.5058 89.9003 40.4312 89.9907C40.4135 90.0127 40.3941 90.0329 40.3772 90.0565C40.3003 90.1602 40.2376 90.2738 40.1907 90.3941C40.1907 90.4017 40.1814 90.4084 40.1781 90.4169C32.684 89.3265 25.8291 85.5857 20.8573 79.8733C15.8855 74.161 13.1262 66.8555 13.0802 59.2827V55.546H86.9198ZM56.962 97.0464H43.038V92.4051H56.962V97.0464ZM91.9831 59.2827C91.9481 68.1857 88.6747 76.7718 82.774 83.4387C76.8734 90.1055 68.7485 94.3976 59.9156 95.5139V93.3755C68.1771 92.252 75.7558 88.185 81.2593 81.9219C86.7628 75.6588 89.8214 67.6201 89.8734 59.2827V55.546H91.9831V59.2827ZM97.0464 52.5924H2.95359V47.9511H97.0464V52.5924Z" fill="white"/>
</svg>
