<svg width="96" height="100" viewBox="0 0 96 100" fill="none" xmlns="http://www.w3.org/2000/svg">
    <path d="M53.1806 11.257H47.5644C46.5669 11.257 45.7554 12.0685 45.7554 13.0662V19.8055C45.7552 20.8029 46.5667 21.6144 47.5644 21.6144H53.1806C54.178 21.6144 54.9897 20.8029 54.9897 19.8053V13.0662C54.9897 12.0687 54.1782 11.257 53.1806 11.257ZM52.1323 18.7572H48.6124V14.1142H52.1323V18.7572Z" fill="white"/>
    <path d="M64.3471 11.257H58.7309C57.7334 11.257 56.9219 12.0685 56.9219 13.0662V19.8055C56.9219 20.8029 57.7332 21.6144 58.7309 21.6144H64.3471C65.3445 21.6144 66.1561 20.8029 66.1561 19.8053V13.0662C66.1561 12.0687 65.3445 11.257 64.3471 11.257ZM63.2986 18.7572H59.7789V14.1142H63.2986V18.7572Z" fill="white"/>
    <path d="M75.5131 11.257H69.8969C68.8994 11.257 68.0879 12.0685 68.0879 13.0662V19.8055C68.0879 20.8029 68.8994 21.6144 69.8969 21.6144H75.5131C76.5105 21.6144 77.3223 20.8029 77.3223 19.8053V13.0662C77.3223 12.0687 76.5107 11.257 75.5131 11.257ZM74.465 18.7572H70.9451V14.1142H74.465V18.7572Z" fill="white"/>
    <path d="M53.1806 27.9921H47.5644C46.5669 27.9921 45.7554 28.8036 45.7554 29.8012V36.5405C45.7552 37.5382 46.5667 38.3497 47.5644 38.3497H53.1806C54.178 38.3497 54.9897 37.5382 54.9897 36.5405V29.8012C54.9897 28.8038 54.1782 27.9921 53.1806 27.9921ZM52.1323 35.4927H48.6124V30.8497H52.1323V35.4927Z" fill="white"/>
    <path d="M64.3471 27.9921H58.7309C57.7334 27.9921 56.9219 28.8036 56.9219 29.8012V36.5405C56.9219 37.5382 57.7332 38.3497 58.7309 38.3497H64.3471C65.3445 38.3497 66.1561 37.5382 66.1561 36.5405V29.8012C66.1561 28.8038 65.3445 27.9921 64.3471 27.9921ZM63.2986 35.4927H59.7789V30.8497H63.2986V35.4927Z" fill="white"/>
    <path d="M75.5131 27.9921H69.8969C68.8994 27.9921 68.0879 28.8036 68.0879 29.8012V36.5405C68.0879 37.5382 68.8994 38.3497 69.8969 38.3497H75.5131C76.5105 38.3497 77.3223 37.5382 77.3223 36.5405V29.8012C77.3223 28.8038 76.5107 27.9921 75.5131 27.9921ZM74.465 35.4927H70.9451V30.8497H74.465V35.4927Z" fill="white"/>
    <path d="M53.1806 44.728H47.5644C46.5669 44.728 45.7554 45.5396 45.7554 46.5372V53.2765C45.7552 54.2739 46.5667 55.0856 47.5644 55.0856H53.1806C54.178 55.0856 54.9897 54.2741 54.9897 53.2765V46.5372C54.9897 45.5397 54.1782 44.728 53.1806 44.728ZM52.1323 52.2284H48.6124V47.5854H52.1323V52.2284Z" fill="white"/>
    <path d="M64.3471 44.728H58.7309C57.7334 44.728 56.9219 45.5396 56.9219 46.5372V53.2765C56.9219 54.2739 57.7332 55.0856 58.7309 55.0856H64.3471C65.3445 55.0856 66.1561 54.2741 66.1561 53.2765V46.5372C66.1561 45.5397 65.3445 44.728 64.3471 44.728ZM63.2986 52.2284H59.7789V47.5854H63.2986V52.2284Z" fill="white"/>
    <path d="M75.5131 44.728H69.8969C68.8994 44.728 68.0879 45.5396 68.0879 46.5372V53.2765C68.0879 54.2739 68.8994 55.0856 69.8969 55.0856H75.5131C76.5105 55.0856 77.3223 54.2741 77.3223 53.2765V46.5372C77.3223 45.5397 76.5107 44.728 75.5131 44.728ZM74.465 52.2284H70.9451V47.5854H74.465V52.2284Z" fill="white"/>
    <path d="M75.5131 61.4637H69.8969C68.8994 61.4637 68.0879 62.2752 68.0879 63.2726V70.0119C68.0879 71.0094 68.8994 71.8211 69.8969 71.8211H75.5131C76.5105 71.8211 77.3223 71.0096 77.3223 70.0119V63.2726C77.3223 62.2752 76.5107 61.4637 75.5131 61.4637ZM74.465 68.9637H70.9451V64.3209H74.465V68.9637Z" fill="white"/>
    <path d="M94.2156 67.8297C92.385 65.1391 88.698 64.4268 85.999 66.2406L82.0711 68.8693V7.41465H82.3559C83.3902 7.41465 84.2316 6.57324 84.2316 5.53887V1.87578C84.2316 0.841406 83.3902 0 82.3559 0H73.2332C72.4441 0 71.8047 0.639648 71.8047 1.42852C71.8047 2.21738 72.4443 2.85703 73.2332 2.85703H81.3744V4.55723H41.2631V2.85703H64.2873C65.0764 2.85703 65.7158 2.21738 65.7158 1.42852C65.7158 0.639648 65.0762 0 64.2871 0H40.2816C39.2473 0 38.4059 0.841406 38.4059 1.87578V5.53887C38.4059 6.57324 39.2473 7.41465 40.2816 7.41465H41.007V25.7645H38.0736V22.2383C38.0736 21.0105 37.0748 20.0117 35.8473 20.0117H25.0605C23.8328 20.0117 22.834 21.0105 22.834 22.2383V25.7643H20.7812C19.5055 25.7643 18.4676 26.8021 18.4676 28.0779V60.8406C17.8629 60.8021 17.2564 60.7814 16.6486 60.7814H14.3971V60.0389C14.3971 57.2672 12.1422 55.0123 9.37031 55.0123H5.02676C2.25508 55.0123 0 57.2672 0 60.0389V80.4393C0 81.2283 0.639648 81.8678 1.42852 81.8678C2.21738 81.8678 2.85703 81.2281 2.85703 80.4393V60.0389C2.85703 58.8428 3.83027 57.8695 5.02656 57.8695H9.37012C10.5664 57.8695 11.5396 58.8428 11.5396 60.0389V92.1828C11.5396 93.3789 10.5664 94.3521 9.37012 94.3521H5.02676C3.83047 94.3521 2.85723 93.3789 2.85723 92.1828V89.3799C2.85723 88.5908 2.21758 87.9514 1.42871 87.9514C0.639844 87.9514 0.000195391 88.591 0.000195391 89.3799V92.1828C0.000195391 94.9545 2.25508 97.2094 5.02695 97.2094H9.37051C12.1422 97.2094 14.3973 94.9543 14.3973 92.1828V92.1014L34.1791 99.5924C34.2178 99.607 34.257 99.6199 34.2969 99.6312C35.166 99.8768 36.0348 100 36.8957 100C37.3637 100 37.8293 99.9635 38.2914 99.8906C38.2918 99.8906 38.2928 99.8904 38.2941 99.8902L67.4935 95.6813C67.5008 95.6803 67.5078 95.6791 67.515 95.6779C70.0111 95.2793 72.3656 94.2244 74.3244 92.627C74.3422 92.6125 74.3598 92.5975 74.3767 92.582L93.2494 75.608C95.4734 73.6328 95.8889 70.2891 94.2156 67.8297ZM43.8643 7.41465H79.2141V70.7816L67.3277 78.7365L63.3426 78.5129L63.241 77.4926C63.1666 76.7432 62.9986 76.0223 62.7486 75.342C62.6652 75.1152 62.5728 74.893 62.4719 74.6756C62.3201 74.3496 62.149 74.0348 61.9598 73.7324C61.5123 73.0182 60.9635 72.3746 60.3326 71.8207H64.3475C65.3449 71.8207 66.1564 71.0092 66.1564 70.0115V63.2723C66.1564 62.2748 65.3449 61.4633 64.3475 61.4633H58.7312C57.7338 61.4633 56.9223 62.2748 56.9223 63.2723V69.9795C56.5613 69.8799 56.1908 69.8019 55.8117 69.7482C55.7996 69.7465 55.7873 69.7449 55.775 69.7436L54.9898 69.6531V63.2721C54.9898 62.2746 54.1783 61.4629 53.1807 61.4629H47.5644C46.567 61.4629 45.7555 62.2744 45.7555 63.2721V68.59L43.8643 68.3725V7.41465ZM59.7791 68.9635V64.3207H63.2988V68.9635H59.7791ZM52.1324 64.3205V68.9635H48.9963L48.6125 68.9193V64.3205H52.1324ZM25.6912 22.8689H35.2164V25.7643H25.6912V22.8689ZM21.3244 28.6215H41.007V33.0891H24.873C23.9494 33.0891 23.198 33.8404 23.198 34.7641V39.0775C23.198 40.0012 23.9494 40.7525 24.873 40.7525H41.007V44.7717H24.873C23.9494 44.7717 23.198 45.523 23.198 46.4467V50.76C23.198 51.6836 23.9494 52.435 24.873 52.435H41.007V56.4541H24.873C23.9494 56.4541 23.198 57.2055 23.198 58.1291V61.5398C22.9555 61.4834 22.7119 61.4307 22.4674 61.3803C22.3521 61.3564 22.2369 61.3338 22.1213 61.3113C21.9861 61.2852 21.8504 61.2605 21.7146 61.2363C21.5846 61.2129 21.4549 61.1879 21.3244 61.1664V28.6215ZM41.007 35.9463V37.8953H26.0553V35.9463H41.007ZM41.007 47.6287V49.5777H26.0553V47.6287H41.007ZM26.0553 61.2604V59.3113H41.007V61.2604H26.0553ZM41.007 64.1176V68.0436L40.567 67.9928C39.6439 67.8615 38.7346 67.6805 37.8394 67.4537C36.1041 67.0141 34.424 66.3977 32.8137 65.6061C32.5996 65.5008 32.3873 65.3918 32.1758 65.2803C31.8305 65.0984 31.4883 64.9096 31.1498 64.7115C30.9006 64.5656 30.649 64.4254 30.3965 64.2875C30.3418 64.2576 30.2871 64.2281 30.2322 64.1988C30.182 64.1719 30.132 64.1441 30.0818 64.1176H41.007ZM91.3455 73.4775L72.4926 90.4336C70.9314 91.6992 69.0592 92.5359 67.0746 92.8547L37.875 97.0637C37.8686 97.0647 37.842 97.0687 37.8357 97.0697C36.9621 97.2078 36.0521 97.1498 35.1303 96.8975L14.3971 89.0461V63.6389H16.6484C17.6844 63.6389 18.7162 63.7047 19.7395 63.8281C19.9473 63.8531 20.1543 63.8807 20.3609 63.9105C20.391 63.9148 20.4209 63.9195 20.4508 63.924C20.9729 64.0014 21.4902 64.0953 22.0033 64.2031C22.1629 64.2369 22.3227 64.2709 22.4816 64.3076C22.5611 64.326 22.6402 64.3453 22.7195 64.3643C22.9268 64.4143 23.1336 64.4662 23.3396 64.5215C23.3768 64.5314 23.4141 64.541 23.4512 64.5512C25.0652 64.9912 26.6367 65.5879 28.1414 66.3342C28.1863 66.3564 28.2311 66.3791 28.2758 66.4018C28.4672 66.498 28.6572 66.5973 28.8463 66.6982C28.9039 66.7291 28.9617 66.7594 29.0191 66.7906C29.2467 66.9146 29.473 67.0412 29.6971 67.1723C29.7004 67.1742 29.7037 67.176 29.707 67.1779C30.3143 67.533 30.9314 67.8648 31.5582 68.1729C34.2738 69.5076 37.1668 70.3977 40.1846 70.8246C40.1969 70.8264 40.209 70.8279 40.2213 70.8293L42.2723 71.0654L43.9426 71.2578L47.7947 71.7014L48.7506 71.8115C48.7508 71.8115 48.751 71.8115 48.7512 71.8115L55.4281 72.5803C58.0891 72.9646 60.1314 75.0986 60.3977 77.7756L60.4473 78.2734L33.6697 75.6637C32.882 75.5869 32.1857 76.1617 32.1092 76.9471C32.0328 77.7324 32.6072 78.4311 33.3926 78.5076L61.7797 81.2744C61.8392 81.2855 61.8998 81.2943 61.9617 81.2977L67.6447 81.6166C67.6715 81.6182 67.6982 81.6188 67.7248 81.6188C67.7531 81.6188 67.7809 81.6143 67.8092 81.6125C67.8416 81.6105 67.8738 81.6094 67.9059 81.6053C67.9469 81.6 67.9871 81.591 68.0275 81.5822C68.0592 81.5754 68.091 81.5699 68.1219 81.5609C68.1648 81.5484 68.2064 81.5316 68.248 81.515C68.2744 81.5047 68.3014 81.4965 68.3269 81.4846C68.3933 81.4537 68.4578 81.4182 68.5193 81.3772L81.4371 72.732L81.4373 72.7318L87.5904 68.6139C88.9914 67.6725 90.9039 68.0418 91.8533 69.4373C92.7213 70.7127 92.5059 72.4471 91.3455 73.4775Z" fill="white"/>
</svg>
