<svg width="114" height="116" viewBox="0 0 114 116" fill="none" xmlns="http://www.w3.org/2000/svg">
    <path d="M56.9994 34.8C63.2146 34.8 69.1753 37.2443 73.5701 41.5951C77.965 45.946 80.434 51.847 80.434 58C80.434 64.153 77.965 70.054 73.5701 74.4049C69.1753 78.7557 63.2146 81.2 56.9994 81.2C50.7842 81.2 44.8236 78.7557 40.4287 74.4049C36.0339 70.054 33.5649 64.153 33.5649 58C33.5649 51.847 36.0339 45.946 40.4287 41.5951C44.8236 37.2443 50.7842 34.8 56.9994 34.8ZM56.9994 46.4C53.8918 46.4 50.9115 47.6221 48.7141 49.7976C46.5167 51.973 45.2822 54.9235 45.2822 58C45.2822 61.0765 46.5167 64.027 48.7141 66.2024C50.9115 68.3779 53.8918 69.6 56.9994 69.6C60.107 69.6 63.0874 68.3779 65.2848 66.2024C67.4822 64.027 68.7167 61.0765 68.7167 58C68.7167 54.9235 67.4822 51.973 65.2848 49.7976C63.0874 47.6221 60.107 46.4 56.9994 46.4ZM45.2822 116C43.8175 116 42.5872 114.956 42.3529 113.564L40.1852 98.194C36.4942 96.744 33.3306 94.772 30.2841 92.452L15.6961 98.31C14.4072 98.774 12.8254 98.31 12.1223 97.034L0.405069 76.966C0.046495 76.3684 -0.0799154 75.6619 0.0494772 74.9787C0.17887 74.2956 0.555206 73.6824 1.10811 73.254L13.4698 63.626L13.0597 58L13.4698 52.2L1.10811 42.746C0.555206 42.3176 0.17887 41.7044 0.0494772 41.0213C-0.0799154 40.3381 0.046495 39.6316 0.405069 39.034L12.1223 18.966C12.8254 17.69 14.4072 17.168 15.6961 17.69L30.2841 23.49C33.3306 21.228 36.4942 19.256 40.1852 17.806L42.3529 2.436C42.5872 1.044 43.8175 0 45.2822 0H68.7167C70.1814 0 71.4117 1.044 71.646 2.436L73.8137 17.806C77.5046 19.256 80.6683 21.228 83.7148 23.49L98.3028 17.69C99.5917 17.168 101.174 17.69 101.877 18.966L113.594 39.034C114.355 40.31 114.004 41.876 112.891 42.746L100.529 52.2L100.939 58L100.529 63.8L112.891 73.254C114.004 74.124 114.355 75.69 113.594 76.966L101.877 97.034C101.174 98.31 99.5917 98.832 98.3028 98.31L83.7148 92.51C80.6683 94.772 77.5046 96.744 73.8137 98.194L71.646 113.564C71.4117 114.956 70.1814 116 68.7167 116H45.2822ZM52.6055 11.6L50.4378 26.738C43.4074 28.188 37.1973 31.9 32.6861 37.062L18.5668 31.03L14.1729 38.57L26.5346 47.56C24.1911 54.3267 24.1911 61.6733 26.5346 68.44L14.1143 77.488L18.5082 85.028L32.7447 78.996C37.2559 84.1 43.4074 87.812 50.3792 89.204L52.5469 104.4H61.452L63.6197 89.262C70.5915 87.812 76.743 84.1 81.2542 78.996L95.4906 85.028L99.8846 77.488L87.4643 68.498C89.8078 61.712 89.8078 54.346 87.4643 47.56L99.826 38.57L95.432 31.03L81.3127 37.062C76.7092 31.7859 70.4645 28.1745 63.5611 26.796L61.3934 11.6H52.6055Z" fill="white"/>
</svg>
