<svg width="39" height="42" viewBox="0 0 39 42" fill="none" xmlns="http://www.w3.org/2000/svg">
<g filter="url(#filter0_d)">
<path d="M9.20758 30.5218C8.51255 29.6282 7.64377 27.8161 6.1296 25.5573C5.26082 24.3162 3.1261 21.9581 2.48071 20.7418C2.01547 20.0026 1.88047 19.1026 2.10838 18.2595C2.49799 16.6565 4.01861 15.5931 5.65798 15.7773C6.92591 16.032 8.09113 16.6534 9.009 17.5645C9.64987 18.1681 10.2394 18.824 10.7714 19.5255C11.1685 20.0219 11.2678 20.2205 11.7146 20.7914C12.1614 21.3623 12.4593 21.9332 12.2359 21.0893C12.0622 19.8482 11.7643 17.7631 11.3423 15.9014C11.0196 14.4865 10.9451 14.2631 10.6473 13.1958C10.3494 12.1284 10.1757 11.2348 9.85296 10.0185C9.55799 8.82347 9.32599 7.61378 9.15793 6.39442C8.84506 4.83484 9.07268 3.21521 9.80332 1.80228C10.6706 0.986542 11.9428 0.77124 13.0302 1.25619C14.1239 2.06375 14.9393 3.19147 15.3635 4.4831C16.014 6.0727 16.4482 7.74244 16.6543 9.44757C17.0515 11.9298 17.8209 15.5539 17.8458 16.2986C17.8458 15.3801 17.672 13.444 17.8458 12.5752C18.0179 11.6695 18.6474 10.9178 19.5089 10.5894C20.2481 10.3626 21.0301 10.3116 21.7925 10.4405C22.5621 10.6014 23.2438 11.044 23.7038 11.6816C24.2789 13.1297 24.5981 14.6667 24.6471 16.2241C24.7136 14.8603 24.947 13.5098 25.3421 12.2029C25.7569 11.6184 26.3627 11.197 27.0549 11.0114C27.8755 10.8613 28.7165 10.8613 29.5371 11.0114C30.21 11.2364 30.7987 11.6605 31.225 12.2277C31.7507 13.5441 32.0689 14.9342 32.1683 16.3482C32.1683 16.6957 32.342 15.3801 32.8881 14.5113C33.1719 13.6689 33.8836 13.0418 34.7551 12.8663C35.6266 12.6908 36.5255 12.9936 37.1132 13.6606C37.7009 14.3276 37.8882 15.2575 37.6044 16.1C37.6044 17.7134 37.6044 17.639 37.6044 18.7311C37.6044 19.8233 37.6044 20.7914 37.6044 21.7098C37.5139 23.1624 37.3148 24.6061 37.0086 26.0289C36.5767 27.2877 35.9754 28.4819 35.2214 29.5785C34.0162 30.9188 33.0203 32.4336 32.2676 34.0714C32.0808 34.8851 31.9974 35.7191 32.0194 36.5536C32.0169 37.3247 32.117 38.0926 32.3172 38.8373C31.3023 38.9446 30.279 38.9446 29.2641 38.8373C28.296 38.6883 27.1045 36.7522 26.7818 36.1565C26.6222 35.8366 26.2954 35.6345 25.9379 35.6345C25.5804 35.6345 25.2536 35.8366 25.0939 36.1565C24.5478 37.0997 23.3315 38.8125 22.4876 38.9117C20.8245 39.1103 17.399 38.9117 14.6933 38.9117C14.6933 38.9117 15.1401 36.4295 14.1224 35.5359C13.1047 34.6423 12.0622 33.5998 11.2927 32.9047L9.20758 30.5218Z" fill="white"/>
<path fill-rule="evenodd" clip-rule="evenodd" d="M9.20758 30.5218C8.51255 29.6282 7.64377 27.8161 6.1296 25.5573C5.26082 24.3162 3.1261 21.9581 2.48071 20.7418C2.01547 20.0026 1.88047 19.1026 2.10838 18.2595C2.49799 16.6565 4.01861 15.5931 5.65798 15.7773C6.92591 16.032 8.09113 16.6534 9.009 17.5645C9.64987 18.1681 10.2394 18.824 10.7714 19.5255C11.1685 20.0219 11.2678 20.2205 11.7146 20.7914C12.1614 21.3623 12.4593 21.9332 12.2359 21.0893C12.0622 19.8482 11.7643 17.7631 11.3423 15.9014C11.0196 14.4865 10.9451 14.2631 10.6473 13.1958C10.3494 12.1284 10.1757 11.2348 9.85296 10.0185C9.55799 8.82347 9.32599 7.61378 9.15793 6.39442C8.84506 4.83484 9.07268 3.21521 9.80332 1.80228C10.6706 0.986542 11.9428 0.77124 13.0302 1.25619C14.1239 2.06375 14.9393 3.19147 15.3635 4.4831C16.014 6.0727 16.4482 7.74244 16.6543 9.44758C17.0515 11.9298 17.8209 15.5539 17.8458 16.2986C17.8458 15.3801 17.672 13.444 17.8458 12.5752C18.0179 11.6695 18.6474 10.9178 19.5089 10.5894C20.2481 10.3626 21.0301 10.3116 21.7925 10.4405C22.5621 10.6014 23.2438 11.044 23.7038 11.6816C24.2789 13.1297 24.5981 14.6667 24.6471 16.2241C24.7136 14.8603 24.947 13.5098 25.3421 12.2029C25.7569 11.6184 26.3627 11.197 27.0549 11.0114C27.8755 10.8613 28.7165 10.8613 29.5371 11.0114C30.21 11.2364 30.7987 11.6605 31.225 12.2277C31.7507 13.5441 32.0689 14.9342 32.1683 16.3482C32.1683 16.6957 32.342 15.3801 32.8881 14.5113C33.1719 13.6689 33.8836 13.0418 34.7551 12.8663C35.6266 12.6908 36.5255 12.9936 37.1132 13.6606C37.7009 14.3276 37.8882 15.2575 37.6044 16.1C37.6044 17.7134 37.6044 17.639 37.6044 18.7311C37.6044 19.8233 37.6044 20.7914 37.6044 21.7098C37.5139 23.1624 37.3148 24.6061 37.0086 26.0289C36.5767 27.2877 35.9754 28.4819 35.2214 29.5785C34.0162 30.9188 33.0203 32.4336 32.2676 34.0714C32.0808 34.8851 31.9974 35.7191 32.0193 36.5536C32.0169 37.3247 32.117 38.0926 32.3172 38.8373C31.3023 38.9446 30.279 38.9446 29.2641 38.8373C28.296 38.6883 27.1045 36.7522 26.7818 36.1565C26.6222 35.8366 26.2954 35.6345 25.9379 35.6345C25.5804 35.6345 25.2536 35.8366 25.0939 36.1565C24.5478 37.0997 23.3315 38.8125 22.4876 38.9117C20.8245 39.1103 17.399 38.9117 14.6933 38.9117C14.6933 38.9117 15.1401 36.4295 14.1224 35.5359C13.1047 34.6423 12.0622 33.5998 11.2927 32.9047L9.20758 30.5218Z" stroke="black" stroke-width="0.75" stroke-linecap="round" stroke-linejoin="round"/>
<path d="M30.2572 31.8769V23.3088C30.2572 22.7959 29.8404 22.3801 29.3263 22.3801C28.8123 22.3801 28.3955 22.7959 28.3955 23.3088V31.8769C28.3955 32.3898 28.8123 32.8055 29.3263 32.8055C29.8404 32.8055 30.2572 32.3898 30.2572 31.8769Z" fill="black"/>
<path d="M25.342 31.8738L25.2923 23.3012C25.2894 22.7896 24.8702 22.3772 24.3561 22.3801C23.8421 22.3831 23.4277 22.8002 23.4307 23.3119L23.4803 31.8844C23.4833 32.3961 23.9024 32.8085 24.4165 32.8055C24.9306 32.8026 25.3449 32.3854 25.342 31.8738Z" fill="black"/>
<path d="M18.4663 23.3209L18.516 31.8757C18.519 32.3922 18.9381 32.8085 19.4522 32.8055C19.9663 32.8025 20.3806 32.3813 20.3776 31.8648L20.328 23.31C20.325 22.7934 19.9058 22.3771 19.3917 22.3801C18.8776 22.3832 18.4633 22.8043 18.4663 23.3209Z" fill="black"/>
</g>
<defs>
<filter id="filter0_d" x="0.825" y="0.625" width="38.0846" height="40.55" filterUnits="userSpaceOnUse" color-interpolation-filters="sRGB">
<feFlood flood-opacity="0" result="BackgroundImageFix"/>
<feColorMatrix in="SourceAlpha" type="matrix" values="0 0 0 0 0 0 0 0 0 0 0 0 0 0 0 0 0 0 127 0"/>
<feOffset dy="1"/>
<feGaussianBlur stdDeviation="0.4"/>
<feColorMatrix type="matrix" values="0 0 0 0 0 0 0 0 0 0 0 0 0 0 0 0 0 0 0.5 0"/>
<feBlend mode="normal" in2="BackgroundImageFix" result="effect1_dropShadow"/>
<feBlend mode="normal" in="SourceGraphic" in2="effect1_dropShadow" result="shape"/>
</filter>
</defs>
</svg>
