<svg width="22" height="31" viewBox="0 0 22 31" fill="none" xmlns="http://www.w3.org/2000/svg">
<path d="M2.97486 18.6486L2.16113 19.2298L2.97486 18.6486ZM19.0251 18.6486L18.2114 18.0674L19.0251 18.6486ZM2 12.4861L2 11.8838H0L0 12.4861H2ZM11.794 29.2749L3.78859 18.0674L2.16113 19.2298L10.1665 30.4374L11.794 29.2749ZM18.2114 18.0674L10.206 29.2749L11.8335 30.4374L19.8389 19.2298L18.2114 18.0674ZM20 11.8838V12.4861H22V11.8838H20ZM10.1665 30.4374C10.575 31.0093 11.425 31.0093 11.8335 30.4374L10.206 29.2749C10.5952 28.7301 11.4048 28.7301 11.794 29.2749L10.1665 30.4374ZM0 12.4861C0 14.9043 0.755581 17.2621 2.16113 19.2298L3.78859 18.0674C2.62533 16.4388 2 14.4875 2 12.4861H0ZM19.8389 19.2298C21.2444 17.2621 22 14.9043 22 12.4861H20C20 14.4875 19.3747 16.4388 18.2114 18.0674L19.8389 19.2298ZM11 2.88379C15.9706 2.88379 20 6.91323 20 11.8838H22C22 5.80866 17.0751 0.883789 11 0.883789V2.88379ZM11 0.883789C4.92487 0.883789 0 5.80866 0 11.8838H2C2 6.91323 6.02944 2.88379 11 2.88379V0.883789Z" fill="white"/>
<path d="M9.04542 7.88463C10.2806 7.28981 11.7194 7.28981 12.9546 7.88463V7.88463C14.1897 8.47946 15.0868 9.60437 15.3919 10.9409V10.9409C15.697 12.2775 15.3768 13.6802 14.522 14.7521V14.7521C13.6673 15.8239 12.3709 16.4482 11 16.4482V16.4482C9.62907 16.4482 8.33273 15.8239 7.47797 14.7521V14.7521C6.62321 13.6802 6.30304 12.2775 6.6081 10.9409V10.9409C6.91316 9.60437 7.81025 8.47946 9.04542 7.88463V7.88463Z" stroke="white" stroke-width="2" stroke-linecap="round" stroke-linejoin="round"/>
</svg>
